<?xml version="1.0" encoding="utf-8"?>
<svg width="24px" height="24px" viewBox="0 0 24 24" version="1.1" xmlns:xlink="http://www.w3.org/1999/xlink" xmlns="http://www.w3.org/2000/svg">
  <defs>
    <filter id="filter_1">
      <feColorMatrix in="SourceGraphic" type="matrix" values="0 0 0 0 1 0 0 0 0 1 0 0 0 0 1 0 0 0 1 0" />
    </filter>
  </defs>
  <g id="whats" filter="url(#filter_1)">
    <path d="M12 2C17.514 2 22 6.486 22 12C22 17.514 17.514 22 12 22C6.486 22 2 17.514 2 12C2 6.486 6.486 2 12 2L12 2ZM12 0C5.373 0 0 5.373 0 12C0 18.627 5.373 24 12 24C18.627 24 24 18.627 24 12C24 5.373 18.627 0 12 0L12 0ZM6.029 18L6.873 14.919C6.353 14.017 6.079 12.994 6.079 11.946C6.08 8.667 8.747 6 12.025 6C13.616 6.001 15.109 6.62 16.231 7.744C17.354 8.868 17.972 10.362 17.971 11.951C17.97 15.23 15.302 17.897 12.025 17.897C11.03 17.897 10.049 17.647 9.181 17.173L6.029 18L6.029 18ZM9.327 16.097C10.165 16.594 10.965 16.893 12.023 16.893C14.747 16.893 16.966 14.676 16.967 11.951C16.968 9.22 14.759 7.006 12.027 7.005C9.301 7.005 7.084 9.222 7.083 11.947C7.083 13.059 7.409 13.893 7.956 14.764L7.457 16.588L9.327 16.097L9.327 16.097ZM15.021 13.365C14.984 13.303 14.885 13.266 14.736 13.191C14.587 13.117 13.857 12.757 13.721 12.708C13.585 12.658 13.486 12.634 13.387 12.782C13.288 12.931 13.003 13.265 12.917 13.365C12.83 13.464 12.744 13.477 12.595 13.402C12.446 13.328 11.968 13.171 11.4 12.665C10.958 12.271 10.66 11.784 10.573 11.636C10.486 11.487 10.564 11.407 10.638 11.333L10.861 11.073L11.01 10.825C11.06 10.726 11.035 10.639 10.998 10.565L10.54 9.462C10.419 9.172 10.297 9.212 10.206 9.207L9.92 9.2C9.821 9.2 9.66 9.237 9.524 9.386C9.388 9.535 9.004 9.894 9.004 10.626C9.004 11.357 9.536 12.064 9.611 12.163C9.685 12.262 10.659 13.763 12.149 14.406C12.503 14.559 12.78 14.651 12.996 14.719C13.352 14.832 13.676 14.816 13.932 14.778C14.217 14.735 14.811 14.419 14.935 14.072C15.058 13.724 15.058 13.427 15.021 13.365L15.021 13.365Z" id="Shape" fill="#000000" fill-rule="evenodd" stroke="none" />
  </g>
</svg>